<svg width="49" height="48" viewBox="0 0 49 48" fill="none" xmlns="http://www.w3.org/2000/svg">
<rect x="1" y="0.5" width="47" height="47" rx="7.5" fill="white" stroke="#F5F5F5"/>
<path fill-rule="evenodd" clip-rule="evenodd" d="M12.125 12.75C12.125 10.2647 14.1397 8.25 16.625 8.25H32.375C34.8603 8.25 36.875 10.2647 36.875 12.75V35.25C36.875 37.7353 34.8603 39.75 32.375 39.75H16.625C14.1397 39.75 12.125 37.7353 12.125 35.25V12.75ZM16.625 10.5C15.3824 10.5 14.375 11.5074 14.375 12.75V35.25C14.375 36.4926 15.3824 37.5 16.625 37.5H32.375C33.6176 37.5 34.625 36.4926 34.625 35.25V12.75C34.625 11.5074 33.6176 10.5 32.375 10.5H16.625Z" fill="#1A1A1A"/>
<path fill-rule="evenodd" clip-rule="evenodd" d="M17.75 16.5469C17.75 14.6829 19.261 13.1719 21.125 13.1719H23.6562C25.5202 13.1719 27.0312 14.6829 27.0312 16.5469V19.0781C27.0312 20.9421 25.5202 22.4531 23.6562 22.4531H21.125C19.261 22.4531 17.75 20.9421 17.75 19.0781V16.5469ZM21.125 15.4219C20.5037 15.4219 20 15.9256 20 16.5469V19.0781C20 19.6994 20.5037 20.2031 21.125 20.2031H23.6562C24.2776 20.2031 24.7812 19.6994 24.7812 19.0781V16.5469C24.7812 15.9256 24.2776 15.4219 23.6562 15.4219H21.125Z" fill="#1A1A1A"/>
<path fill-rule="evenodd" clip-rule="evenodd" d="M17.75 26.25C17.75 25.6287 18.2537 25.125 18.875 25.125H30.125C30.7463 25.125 31.25 25.6287 31.25 26.25C31.25 26.8713 30.7463 27.375 30.125 27.375H18.875C18.2537 27.375 17.75 26.8713 17.75 26.25Z" fill="#1A1A1A"/>
<path fill-rule="evenodd" clip-rule="evenodd" d="M17.75 31.875C17.75 31.2537 18.1225 30.75 18.582 30.75H26.9023C27.3619 30.75 27.7344 31.2537 27.7344 31.875C27.7344 32.4963 27.3619 33 26.9023 33H18.582C18.1225 33 17.75 32.4963 17.75 31.875Z" fill="#1A1A1A"/>
</svg>
