<svg width="49" height="48" viewBox="0 0 49 48" fill="none" xmlns="http://www.w3.org/2000/svg">
<rect x="1" y="0.5" width="47" height="47" rx="7.5" fill="white" stroke="#F5F5F5"/>
<path fill-rule="evenodd" clip-rule="evenodd" d="M8.75 10.7812C8.75 9.38328 9.88328 8.25 11.2812 8.25H20.8438C22.2417 8.25 23.375 9.38328 23.375 10.7812V20.3438C23.375 21.7417 22.2417 22.875 20.8438 22.875H11.2812C9.88328 22.875 8.75 21.7417 8.75 20.3438V10.7812Z" fill="#1A1A1A"/>
<path fill-rule="evenodd" clip-rule="evenodd" d="M28.1562 10.5C28.0009 10.5 27.875 10.6259 27.875 10.7812V20.3438C27.875 20.4991 28.0009 20.625 28.1562 20.625H37.7188C37.8741 20.625 38 20.4991 38 20.3438V10.7812C38 10.6259 37.8741 10.5 37.7188 10.5H28.1562ZM25.625 10.7812C25.625 9.38328 26.7583 8.25 28.1562 8.25H37.7188C39.1167 8.25 40.25 9.38328 40.25 10.7812V20.3438C40.25 21.7417 39.1167 22.875 37.7188 22.875H28.1562C26.7583 22.875 25.625 21.7417 25.625 20.3438V10.7812Z" fill="#1A1A1A"/>
<path fill-rule="evenodd" clip-rule="evenodd" d="M11.2812 27.375C11.1259 27.375 11 27.5009 11 27.6562V37.2188C11 37.3741 11.1259 37.5 11.2812 37.5H20.8438C20.9991 37.5 21.125 37.3741 21.125 37.2188V27.6562C21.125 27.5009 20.9991 27.375 20.8438 27.375H11.2812ZM8.75 27.6562C8.75 26.2583 9.88328 25.125 11.2812 25.125H20.8438C22.2417 25.125 23.375 26.2583 23.375 27.6562V37.2188C23.375 38.6167 22.2417 39.75 20.8438 39.75H11.2812C9.88328 39.75 8.75 38.6167 8.75 37.2188V27.6562Z" fill="#1A1A1A"/>
<path fill-rule="evenodd" clip-rule="evenodd" d="M28.1562 27.375C28.0009 27.375 27.875 27.5009 27.875 27.6562V37.2188C27.875 37.3741 28.0009 37.5 28.1562 37.5H37.7188C37.8741 37.5 38 37.3741 38 37.2188V27.6562C38 27.5009 37.8741 27.375 37.7188 27.375H28.1562ZM25.625 27.6562C25.625 26.2583 26.7583 25.125 28.1562 25.125H37.7188C39.1167 25.125 40.25 26.2583 40.25 27.6562V37.2188C40.25 38.6167 39.1167 39.75 37.7188 39.75H28.1562C26.7583 39.75 25.625 38.6167 25.625 37.2188V27.6562Z" fill="#1A1A1A"/>
</svg>
