<svg width="49" height="48" viewBox="0 0 49 48" fill="none" xmlns="http://www.w3.org/2000/svg">
<rect x="1" y="0.5" width="47" height="47" rx="7.5" fill="#574AE2" stroke="#574AE2"/>
<path fill-rule="evenodd" clip-rule="evenodd" d="M13.8125 13.875C13.3649 13.875 12.9357 14.0528 12.6193 14.3693C12.3028 14.6857 12.125 15.1149 12.125 15.5625V32.4375C12.125 32.8851 12.3028 33.3143 12.6193 33.6307C12.9357 33.9472 13.3649 34.125 13.8125 34.125H25.0625C25.5101 34.125 25.9393 33.9472 26.2557 33.6307C26.5722 33.3143 26.75 32.8851 26.75 32.4375V29.625C26.75 29.0037 27.2537 28.5 27.875 28.5C28.4963 28.5 29 29.0037 29 29.625V32.4375C29 33.4818 28.5852 34.4833 27.8467 35.2217C27.1083 35.9602 26.1068 36.375 25.0625 36.375H13.8125C12.7682 36.375 11.7667 35.9602 11.0283 35.2217C10.2898 34.4833 9.875 33.4818 9.875 32.4375V15.5625C9.875 14.5182 10.2898 13.5167 11.0283 12.7783C11.7667 12.0398 12.7682 11.625 13.8125 11.625H24.5C25.5564 11.625 26.6396 12.0425 27.4638 12.6882C28.2837 13.3306 29 14.3286 29 15.5625V18.375C29 18.9963 28.4963 19.5 27.875 19.5C27.2537 19.5 26.75 18.9963 26.75 18.375V15.5625C26.75 15.2432 26.5554 14.8349 26.0761 14.4593C25.6011 14.0872 24.9968 13.875 24.5 13.875H13.8125ZM31.5795 17.5795C32.0188 17.1402 32.7312 17.1402 33.1705 17.5795L38.7955 23.2045C39.2348 23.6438 39.2348 24.3562 38.7955 24.7955L33.1705 30.4205C32.7312 30.8598 32.0188 30.8598 31.5795 30.4205C31.1402 29.9812 31.1402 29.2688 31.5795 28.8295L36.409 24L31.5795 19.1705C31.1402 18.7312 31.1402 18.0188 31.5795 17.5795Z" fill="white"/>
<path fill-rule="evenodd" clip-rule="evenodd" d="M17.7734 24.008C17.7734 23.3866 18.2771 22.883 18.8984 22.883H37.0391C37.6604 22.883 38.1641 23.3866 38.1641 24.008C38.1641 24.6293 37.6604 25.133 37.0391 25.133H18.8984C18.2771 25.133 17.7734 24.6293 17.7734 24.008Z" fill="white"/>
</svg>
