<svg width="49" height="48" viewBox="0 0 49 48" fill="none" xmlns="http://www.w3.org/2000/svg">
<rect x="1" y="0.5" width="47" height="47" rx="7.5" fill="white" stroke="#F5F5F5"/>
<path fill-rule="evenodd" clip-rule="evenodd" d="M13.8125 13.875C12.2592 13.875 11 15.1342 11 16.6875V31.3125C11 32.8658 12.2592 34.125 13.8125 34.125H35.1875C36.7408 34.125 38 32.8658 38 31.3125V16.6875C38 15.1342 36.7408 13.875 35.1875 13.875H13.8125ZM8.75 16.6875C8.75 13.8916 11.0166 11.625 13.8125 11.625H35.1875C37.9834 11.625 40.25 13.8916 40.25 16.6875V31.3125C40.25 34.1084 37.9834 36.375 35.1875 36.375H13.8125C11.0166 36.375 8.75 34.1084 8.75 31.3125V16.6875Z" fill="#1A1A1A"/>
<path fill-rule="evenodd" clip-rule="evenodd" d="M38.4219 21.6094H10.5781V17.3906H38.4219V21.6094ZM13.3906 27.0938C13.3906 25.9288 14.335 24.9844 15.5 24.9844H18.875C20.04 24.9844 20.9844 25.9288 20.9844 27.0938V28.5C20.9844 29.665 20.04 30.6094 18.875 30.6094H15.5C14.335 30.6094 13.3906 29.665 13.3906 28.5V27.0938Z" fill="#1A1A1A"/>
</svg>
