<svg width="49" height="48" viewBox="0 0 49 48" fill="none" xmlns="http://www.w3.org/2000/svg">
<rect x="1" y="0.5" width="47" height="47" rx="7.5" fill="white" stroke="#F5F5F5"/>
<path d="M38.6117 23.0346L36.778 22.7393C36.6596 22.7193 36.5507 22.662 36.4672 22.5758C36.3837 22.4895 36.33 22.3787 36.3139 22.2597C36.2788 22.0347 36.2436 21.809 36.1944 21.5911C36.1706 21.474 36.1843 21.3525 36.2335 21.2437C36.2827 21.1349 36.365 21.0444 36.4686 20.985L38.0921 20.0836C38.215 20.0207 38.3107 19.9152 38.3612 19.7867C38.4117 19.6583 38.4135 19.5158 38.3663 19.3861L38.0851 18.6126C38.038 18.4826 37.9444 18.3746 37.8223 18.3097C37.7002 18.2447 37.5583 18.2274 37.4242 18.2611L35.6038 18.6126C35.4854 18.6355 35.3628 18.6198 35.2541 18.5678C35.1454 18.5158 35.0562 18.4302 34.9998 18.3237C34.8943 18.1268 34.7818 17.9297 34.6623 17.7323C34.5992 17.6297 34.57 17.5098 34.5788 17.3897C34.5876 17.2695 34.6341 17.1552 34.7115 17.0629L35.9272 15.6609C36.0215 15.5606 36.0757 15.4292 36.0796 15.2916C36.0835 15.1539 36.0368 15.0197 35.9483 14.9142L35.4217 14.2814C35.3339 14.175 35.2096 14.1051 35.0731 14.0855C34.9365 14.0658 34.7976 14.0978 34.6834 14.1752L33.088 15.1336C32.9854 15.1943 32.8662 15.221 32.7476 15.2096C32.6289 15.1982 32.5169 15.1494 32.4278 15.0703C32.259 14.9219 32.0832 14.7743 31.9074 14.6329C31.8139 14.5587 31.7465 14.4565 31.7149 14.3414C31.6833 14.2262 31.6892 14.104 31.7317 13.9924L32.3926 12.2522C32.4488 12.1259 32.4566 11.9834 32.4145 11.8517C32.3723 11.7201 32.2832 11.6086 32.1641 11.5385L31.4469 11.1229C31.3272 11.055 31.1867 11.0333 31.0521 11.0619C30.9175 11.0905 30.798 11.1675 30.7164 11.2783L29.5464 12.7437C29.481 12.8359 29.3865 12.9034 29.278 12.9353C29.1696 12.9672 29.0536 12.9616 28.9487 12.9194C28.9487 12.9194 28.5549 12.7577 28.2596 12.6586C28.1464 12.6208 28.048 12.548 27.9789 12.4507C27.9098 12.3534 27.8734 12.2365 27.875 12.1172L27.9032 10.2574C27.9114 10.1191 27.8688 9.9825 27.7833 9.87343C27.6978 9.76437 27.5754 9.69036 27.4391 9.66537L26.6242 9.52474C26.4878 9.50112 26.3474 9.52818 26.2296 9.60083C26.1117 9.67348 26.0245 9.78671 25.9843 9.9192L25.3796 11.6805C25.3408 11.7941 25.2668 11.8922 25.1682 11.9606C25.0697 12.0291 24.9518 12.0642 24.8319 12.0609H24.1428C24.0231 12.0634 23.9056 12.028 23.8072 11.9597C23.7088 11.8913 23.6346 11.7936 23.5951 11.6805L22.9904 9.9192C22.9502 9.78671 22.863 9.67348 22.7452 9.60083C22.6273 9.52818 22.487 9.50112 22.3506 9.52474L21.5357 9.66537C21.3994 9.69036 21.2769 9.76437 21.1914 9.87343C21.1059 9.9825 21.0633 10.1191 21.0716 10.2574L21.0997 12.1172C21.1014 12.2368 21.0649 12.3539 20.9955 12.4514C20.9261 12.5489 20.8273 12.6217 20.7137 12.6593C20.552 12.7226 20.2004 12.8569 20.0317 12.9201C19.8348 12.9904 19.6028 12.9342 19.4129 12.7155L18.2521 11.2854C18.17 11.175 18.0503 11.0986 17.9157 11.0705C17.7811 11.0424 17.6409 11.0645 17.5215 11.1328L16.8043 11.5483C16.6849 11.6171 16.5952 11.7276 16.5523 11.8586C16.5095 11.9896 16.5166 12.1317 16.5723 12.2578L17.2332 13.998C17.2751 14.1097 17.2806 14.2317 17.249 14.3468C17.2175 14.4618 17.1504 14.5639 17.0575 14.6386C16.8817 14.7792 16.7059 14.9276 16.5371 15.0759C16.448 15.1551 16.336 15.2038 16.2173 15.2152C16.0987 15.2266 15.9795 15.2 15.8769 15.1392L14.3047 14.1661C14.1899 14.0905 14.0515 14.0596 13.9155 14.0792C13.7794 14.0988 13.6553 14.1674 13.5664 14.2722L13.0398 14.9051C12.9513 15.0105 12.9046 15.1448 12.9085 15.2824C12.9124 15.42 12.9666 15.5515 13.0609 15.6518L14.2766 17.0538C14.3556 17.1453 14.4031 17.2598 14.412 17.3804C14.4209 17.5009 14.3906 17.6211 14.3258 17.7232C14.2063 17.9107 14.0938 18.1078 13.9883 18.3145C13.931 18.4202 13.8417 18.5051 13.7332 18.557C13.6247 18.6089 13.5026 18.6252 13.3843 18.6035L11.5639 18.2519C11.4298 18.2192 11.2884 18.237 11.1665 18.3018C11.0446 18.3666 10.9508 18.474 10.903 18.6035L10.6218 19.3769C10.5746 19.5066 10.5764 19.6491 10.6269 19.7776C10.6774 19.906 10.7731 20.0116 10.896 20.0744L12.5174 20.9765C12.6221 21.0348 12.7052 21.1251 12.7546 21.2343C12.804 21.3434 12.817 21.4656 12.7916 21.5826C12.7494 21.8076 12.7072 22.0263 12.6721 22.2513C12.6552 22.37 12.6012 22.4803 12.5179 22.5664C12.4345 22.6525 12.3261 22.7101 12.208 22.7308L10.3743 23.0262C10.2378 23.043 10.112 23.1086 10.0203 23.211C9.92849 23.3134 9.8769 23.4455 9.87504 23.583V24.4071C9.87334 24.5456 9.9237 24.6797 10.0161 24.7828C10.1086 24.8859 10.2364 24.9506 10.3743 24.964L12.208 25.2593C12.3264 25.2792 12.4353 25.3365 12.5188 25.4228C12.6023 25.5091 12.656 25.6198 12.6721 25.7388C12.7072 25.9638 12.7424 26.1895 12.7916 26.4075C12.8154 26.5245 12.8017 26.6461 12.7525 26.7549C12.7033 26.8637 12.621 26.9542 12.5174 27.0136L10.8939 27.9164C10.771 27.9792 10.6753 28.0848 10.6248 28.2133C10.5743 28.3417 10.5725 28.4842 10.6197 28.6139L10.9009 29.3873C10.9479 29.5174 11.0416 29.6254 11.1637 29.6903C11.2858 29.7553 11.4277 29.7726 11.5618 29.7389L13.3822 29.3873C13.5006 29.3644 13.6232 29.3801 13.7319 29.4322C13.8406 29.4842 13.9298 29.5698 13.9862 29.6763C14.0917 29.8732 14.2042 30.0703 14.3237 30.2676C14.3868 30.3703 14.416 30.4901 14.4072 30.6103C14.3984 30.7304 14.3519 30.8447 14.2745 30.937L13.0588 32.3405C12.9645 32.4408 12.9103 32.5722 12.9064 32.7098C12.9025 32.8474 12.9492 32.9817 13.0377 33.0872L13.5643 33.72C13.6521 33.8264 13.7764 33.8963 13.9129 33.9159C14.0495 33.9355 14.1884 33.9035 14.3026 33.8262L15.898 32.8678C16.0006 32.807 16.1198 32.7804 16.2384 32.7918C16.3571 32.8031 16.4691 32.8519 16.5582 32.9311C16.727 33.0794 16.9028 33.2271 17.0786 33.3684C17.172 33.4427 17.2395 33.5448 17.2711 33.66C17.3027 33.7751 17.2968 33.8974 17.2543 34.009L16.5934 35.7492C16.5381 35.8756 16.5311 36.018 16.5739 36.1492C16.6167 36.2804 16.7062 36.3913 16.8254 36.4608L17.5426 36.8763C17.6623 36.9443 17.8028 36.966 17.9374 36.9374C18.072 36.9087 18.1915 36.8317 18.2732 36.7209L19.4537 35.2697C19.6014 35.0869 19.8404 35.0095 20.0303 35.0869C20.2693 35.1853 20.431 35.2415 20.7264 35.3407C20.84 35.3782 20.9387 35.451 21.0081 35.5485C21.0776 35.646 21.1141 35.7631 21.1124 35.8828L21.0842 37.7426C21.076 37.8809 21.1186 38.0175 21.2041 38.1265C21.2896 38.2356 21.412 38.3096 21.5483 38.3346L22.3632 38.4752C22.4996 38.4988 22.64 38.4718 22.7578 38.3991C22.8757 38.3265 22.9629 38.2133 23.0031 38.0808L23.6078 36.323C23.6466 36.2094 23.7206 36.1113 23.8192 36.0428C23.9177 35.9744 24.0356 35.9393 24.1555 35.9426H24.8446C24.9643 35.94 25.0818 35.9755 25.1802 36.0438C25.2786 36.1121 25.3528 36.2098 25.3923 36.323L25.997 38.0808C26.0372 38.2133 26.1244 38.3265 26.2422 38.3991C26.3601 38.4718 26.5004 38.4988 26.6368 38.4752L27.4517 38.3346C27.588 38.3096 27.7105 38.2356 27.796 38.1265C27.8815 38.0175 27.9241 37.8809 27.9158 37.7426L27.8877 35.8828C27.886 35.7631 27.9225 35.646 27.9919 35.5485C28.0613 35.451 28.1601 35.3782 28.2737 35.3407C28.569 35.2415 28.7659 35.1642 28.9487 35.0939C29.1315 35.0236 29.3565 35.0236 29.5323 35.2415L30.7276 36.7139C30.8097 36.8251 30.9298 36.9021 31.065 36.9304C31.2003 36.9587 31.3412 36.9362 31.461 36.8672L32.1781 36.4516C32.2982 36.3829 32.3884 36.2721 32.4313 36.1406C32.4742 36.0091 32.4666 35.8663 32.4102 35.7401L31.7492 33.9998C31.7075 33.888 31.702 33.7659 31.7335 33.6508C31.7651 33.5357 31.8321 33.4335 31.925 33.3586C32.1008 33.218 32.2766 33.0703 32.4453 32.9219C32.5345 32.8428 32.6465 32.794 32.7651 32.7826C32.8838 32.7713 33.003 32.7979 33.1056 32.8587L34.6953 33.8198C34.8101 33.8954 34.9486 33.9263 35.0846 33.9067C35.2206 33.8871 35.3448 33.8185 35.4336 33.7137L35.9603 33.0808C36.0487 32.9754 36.0954 32.8411 36.0916 32.7035C36.0877 32.5659 36.0334 32.4344 35.9392 32.3341L34.7235 30.9321C34.6444 30.8406 34.5969 30.7261 34.5881 30.6055C34.5792 30.485 34.6094 30.3648 34.6742 30.2627C34.7938 30.0729 34.9063 29.8758 35.0117 29.6714C35.0691 29.5657 35.1584 29.4808 35.2668 29.4289C35.3753 29.377 35.4974 29.3607 35.6157 29.3824L37.4361 29.734C37.5702 29.7667 37.7117 29.7489 37.8336 29.6841C37.9554 29.6193 38.0492 29.5119 38.097 29.3824L38.3783 28.609C38.4255 28.4793 38.4237 28.3368 38.3732 28.2083C38.3227 28.0799 38.227 27.9743 38.1041 27.9115L36.4806 27.0101C36.3759 26.9518 36.2927 26.8615 36.2433 26.7523C36.1939 26.6432 36.181 26.521 36.2063 26.404C36.2485 26.179 36.2907 25.9603 36.3259 25.7353C36.3428 25.6166 36.3967 25.5063 36.4801 25.4202C36.5634 25.3341 36.6719 25.2765 36.7899 25.2558L38.6237 24.9605C38.7601 24.9436 38.8859 24.878 38.9777 24.7756C39.0695 24.6732 39.121 24.5411 39.1229 24.4036V23.5781C39.1152 23.4419 39.0598 23.3127 38.9663 23.2133C38.8728 23.1138 38.7473 23.0506 38.6117 23.0346ZM24.5 13.875C26.7458 13.874 28.928 14.6207 30.7025 15.9972C32.4769 17.3737 33.7427 19.3017 34.3002 21.4772C34.3416 21.6431 34.3447 21.8162 34.3092 21.9835C34.2738 22.1508 34.2006 22.3078 34.0953 22.4425C33.99 22.5773 33.8554 22.6863 33.7017 22.7612C33.548 22.8362 33.3792 22.8751 33.2082 22.875H25.8085C25.6098 22.875 25.4146 22.8224 25.2428 22.7225C25.071 22.6226 24.9287 22.4789 24.8305 22.3062L21.1672 15.8578C21.0819 15.7079 21.0322 15.5404 21.022 15.3682C21.0118 15.196 21.0413 15.0238 21.1082 14.8648C21.1751 14.7058 21.2777 14.5644 21.4081 14.4514C21.5384 14.3384 21.6929 14.2569 21.8598 14.2132C22.7216 13.9871 23.609 13.8734 24.5 13.875ZM14.375 24C14.3738 22.6443 14.6448 21.3021 15.172 20.0531C15.6992 18.8041 16.4719 17.6737 17.4442 16.729C17.567 16.6074 17.7161 16.5158 17.88 16.4612C18.0439 16.4065 18.2182 16.3904 18.3893 16.414C18.5604 16.4376 18.7239 16.5003 18.8669 16.5972C19.0099 16.6941 19.1286 16.8227 19.2139 16.9729L22.8871 23.4375C22.9841 23.6074 23.0352 23.7997 23.0352 23.9954C23.0352 24.1911 22.9841 24.3834 22.8871 24.5533L19.1837 31.001C19.0977 31.1508 18.9784 31.2788 18.835 31.3751C18.6916 31.4713 18.528 31.5333 18.3568 31.5561C18.1856 31.579 18.0114 31.5621 17.8478 31.5068C17.6842 31.4515 17.5355 31.3593 17.4132 31.2372C16.4504 30.294 15.6857 29.1679 15.164 27.9251C14.6422 26.6823 14.374 25.3478 14.375 24ZM24.5 34.125C23.5936 34.1273 22.6907 34.0103 21.8148 33.7769C21.648 33.7326 21.4936 33.6505 21.3636 33.5369C21.2337 33.4234 21.1315 33.2815 21.0652 33.1221C20.9989 32.9628 20.9701 32.7903 20.981 32.6181C20.992 32.4458 21.0425 32.2784 21.1285 32.1288L24.8256 25.6917C24.9245 25.5204 25.0667 25.3783 25.2381 25.2795C25.4094 25.1808 25.6038 25.1289 25.8015 25.1292H33.2117C33.3827 25.1292 33.5514 25.1682 33.705 25.2432C33.8586 25.3182 33.9931 25.4272 34.0983 25.5619C34.2035 25.6967 34.2766 25.8536 34.3121 26.0208C34.3476 26.1881 34.3444 26.3612 34.303 26.527C33.7444 28.7021 32.4778 30.6293 30.7029 32.005C28.9279 33.3807 26.7457 34.1266 24.5 34.125Z" fill="#1A1A1A"/>
</svg>
